<?xml version="1.0" encoding="UTF-8" standalone="no"?>
<!-- Created with Inkscape (http://www.inkscape.org/) -->

<svg
   xmlns:dc="http://purl.org/dc/elements/1.1/"
   xmlns:cc="http://creativecommons.org/ns#"
   xmlns:rdf="http://www.w3.org/1999/02/22-rdf-syntax-ns#"
   xmlns:svg="http://www.w3.org/2000/svg"
   xmlns="http://www.w3.org/2000/svg"
   xmlns:xlink="http://www.w3.org/1999/xlink"
   xmlns:sodipodi="http://sodipodi.sourceforge.net/DTD/sodipodi-0.dtd"
   xmlns:inkscape="http://www.inkscape.org/namespaces/inkscape"
   width="368.47992"
   height="342.87305"
   id="svg2"
   version="1.1"
   inkscape:version="0.48.4 r9939"
   sodipodi:docname="New document 1">
  <defs
     id="defs4">
    <inkscape:perspective
       sodipodi:type="inkscape:persp3d"
       inkscape:vp_x="53.847352 : 836.87799 : 1"
       inkscape:vp_y="640.70147 : 244.64357 : 0"
       inkscape:vp_z="416.65892 : 597.6761 : 1"
       inkscape:persp3d-origin="122.87814 : 674.3681 : 1"
       id="perspective4725" />
    <marker
       inkscape:stockid="Arrow2Mend"
       orient="auto"
       refY="0"
       refX="0"
       id="Arrow2Mend"
       style="overflow:visible">
      <path
         id="path3861"
         style="fill-rule:evenodd;stroke-width:0.625;stroke-linejoin:round"
         d="M 8.7185878,4.0337352 -2.2072895,0.01601326 8.7185884,-4.0017078 c -1.7454984,2.3720609 -1.7354408,5.6174519 -6e-7,8.035443 z"
         transform="scale(-0.6,-0.6)"
         inkscape:connector-curvature="0" />
    </marker>
    <marker
       inkscape:stockid="Arrow2Mstart"
       orient="auto"
       refY="0"
       refX="0"
       id="Arrow2Mstart"
       style="overflow:visible">
      <path
         id="path3858"
         style="fill-rule:evenodd;stroke-width:0.625;stroke-linejoin:round"
         d="M 8.7185878,4.0337352 -2.2072895,0.01601326 8.7185884,-4.0017078 c -1.7454984,2.3720609 -1.7354408,5.6174519 -6e-7,8.035443 z"
         transform="scale(0.6,0.6)"
         inkscape:connector-curvature="0" />
    </marker>
    <inkscape:path-effect
       effect="spiro"
       id="path-effect4276"
       is_visible="true" />
    <marker
       inkscape:stockid="Arrow1Mend"
       orient="auto"
       refY="0"
       refX="0"
       id="Arrow1Mend"
       style="overflow:visible">
      <path
         id="path3843"
         d="M 0,0 5,-5 -12.5,0 5,5 0,0 z"
         style="fill-rule:evenodd;stroke:#000000;stroke-width:1pt"
         transform="matrix(-0.4,0,0,-0.4,-4,0)"
         inkscape:connector-curvature="0" />
    </marker>
    <linearGradient
       inkscape:collect="always"
       id="linearGradient3812">
      <stop
         style="stop-color:#000000;stop-opacity:1;"
         offset="0"
         id="stop3814" />
      <stop
         style="stop-color:#000000;stop-opacity:0;"
         offset="1"
         id="stop3816" />
    </linearGradient>
    <inkscape:path-effect
       effect="spiro"
       id="path-effect3810"
       is_visible="true" />
    <inkscape:path-effect
       effect="spiro"
       id="path-effect3801"
       is_visible="true" />
    <radialGradient
       inkscape:collect="always"
       xlink:href="#linearGradient3755-0"
       id="radialGradient3763-2"
       cx="314.60403"
       cy="329.35855"
       fx="314.60403"
       fy="329.35855"
       r="64.1325"
       gradientTransform="matrix(1.4768026,-0.3220508,0.18493731,0.84805221,-214.46929,148.80005)"
       gradientUnits="userSpaceOnUse" />
    <linearGradient
       inkscape:collect="always"
       id="linearGradient3755-0">
      <stop
         style="stop-color:#000000;stop-opacity:0.77678571"
         offset="0"
         id="stop3757-0" />
      <stop
         style="stop-color:#000000;stop-opacity:0;"
         offset="1"
         id="stop3759-5" />
    </linearGradient>
    <radialGradient
       inkscape:collect="always"
       xlink:href="#linearGradient3812"
       id="radialGradient3820"
       cx="307.84961"
       cy="336.98657"
       fx="307.84961"
       fy="336.98657"
       r="64.529556"
       gradientTransform="matrix(1.7411035,-0.28433281,0.12473737,0.7638255,-207.47551,155.26554)"
       gradientUnits="userSpaceOnUse" />
    <marker
       inkscape:stockid="Arrow1Mend"
       orient="auto"
       refY="0"
       refX="0"
       id="Arrow1Mend-3"
       style="overflow:visible">
      <path
         inkscape:connector-curvature="0"
         id="path3843-0"
         d="M 0,0 5,-5 -12.5,0 5,5 0,0 z"
         style="fill-rule:evenodd;stroke:#000000;stroke-width:1pt"
         transform="matrix(-0.4,0,0,-0.4,-4,0)" />
    </marker>
    <inkscape:path-effect
       effect="spiro"
       id="path-effect3810-7"
       is_visible="true" />
    <radialGradient
       inkscape:collect="always"
       xlink:href="#linearGradient3812-6"
       id="radialGradient3820-2"
       cx="307.84961"
       cy="336.98657"
       fx="307.84961"
       fy="336.98657"
       r="64.529556"
       gradientTransform="matrix(1.7411035,-0.28433281,0.12473737,0.7638255,-275.47551,155.26554)"
       gradientUnits="userSpaceOnUse" />
    <linearGradient
       inkscape:collect="always"
       id="linearGradient3812-6">
      <stop
         style="stop-color:#000000;stop-opacity:1;"
         offset="0"
         id="stop3814-0" />
      <stop
         style="stop-color:#000000;stop-opacity:0;"
         offset="1"
         id="stop3816-7" />
    </linearGradient>
    <marker
       inkscape:stockid="Arrow1Mend"
       orient="auto"
       refY="0"
       refX="0"
       id="Arrow1Mend-8"
       style="overflow:visible">
      <path
         inkscape:connector-curvature="0"
         id="path3843-3"
         d="M 0,0 5,-5 -12.5,0 5,5 0,0 z"
         style="fill-rule:evenodd;stroke:#000000;stroke-width:1pt"
         transform="matrix(-0.4,0,0,-0.4,-4,0)" />
    </marker>
    <inkscape:path-effect
       effect="spiro"
       id="path-effect3810-1"
       is_visible="true" />
    <marker
       inkscape:stockid="Arrow1Mend"
       orient="auto"
       refY="0"
       refX="0"
       id="Arrow1Mend-2"
       style="overflow:visible">
      <path
         inkscape:connector-curvature="0"
         id="path3843-8"
         d="M 0,0 5,-5 -12.5,0 5,5 0,0 z"
         style="fill-rule:evenodd;stroke:#000000;stroke-width:1pt"
         transform="matrix(-0.4,0,0,-0.4,-4,0)" />
    </marker>
    <inkscape:path-effect
       effect="spiro"
       id="path-effect3810-1-6"
       is_visible="true" />
  </defs>
  <sodipodi:namedview
     id="base"
     pagecolor="#ffffff"
     bordercolor="#666666"
     borderopacity="1.0"
     inkscape:pageopacity="0.0"
     inkscape:pageshadow="2"
     inkscape:zoom="1.4142136"
     inkscape:cx="235.21582"
     inkscape:cy="103.05185"
     inkscape:document-units="px"
     inkscape:current-layer="layer1"
     showgrid="false"
     fit-margin-top="40"
     fit-margin-left="40"
     fit-margin-right="40"
     fit-margin-bottom="40"
     inkscape:window-width="1920"
     inkscape:window-height="1028"
     inkscape:window-x="0"
     inkscape:window-y="0"
     inkscape:window-maximized="1" />
  <metadata
     id="metadata7">
    <rdf:RDF>
      <cc:Work
         rdf:about="">
        <dc:format>image/svg+xml</dc:format>
        <dc:type
           rdf:resource="http://purl.org/dc/dcmitype/StillImage" />
        <dc:title></dc:title>
      </cc:Work>
    </rdf:RDF>
  </metadata>
  <g
     inkscape:label="Layer 1"
     inkscape:groupmode="layer"
     id="layer1"
     transform="translate(-138.40191,-91.489136)">
    <path
       style="opacity:0.74553576;fill:url(#radialGradient3820);fill-opacity:1;stroke:#000000;stroke-width:1px;stroke-linecap:butt;stroke-linejoin:miter;stroke-opacity:1"
       d="m 401.25,268.11219 c -4.47288,0.11921 -8.4779,-0.58034 -15.5,4 -7.61226,4.63774 -17.83069,6.66931 -28.75,8 -1.08333,1.33942 -2.16667,1.38197 -3.25,4.5 4.35864,16.90802 -16.38932,19.36859 -15.25,31.24999 -2.10862,19.35073 18.13264,21.8082 31.5,23.25 15.44764,0.62739 30.67483,1.08946 43.5,-0.25 20.73051,-0.209 21.22347,-12.69834 35.75,-31.25 0.87716,-6.59953 12.64781,-9.47106 16.25,-15.49999 1.83536,-5.73171 0.42741,-7.40926 -0.25,-10 -19.42602,-14.50977 -34.44305,-4.7701 -51.5,-6.25 l -12.5,-7.75"
       id="path3799"
       inkscape:connector-curvature="0"
       sodipodi:nodetypes="cccccccccccc" />
    <path
       style="fill:none;stroke:#000000;stroke-width:1px;stroke-linecap:butt;stroke-linejoin:miter;stroke-opacity:1;marker-end:url(#Arrow1Mend)"
       d="M 405.92597,292.34372 298.70356,150.43024"
       id="path3808"
       inkscape:path-effect="#path-effect3810"
       inkscape:original-d="M 405.92597,292.34372 298.70356,150.43024"
       inkscape:connector-curvature="0"
       sodipodi:nodetypes="cc" />
    <path
       style="fill:none;stroke:#000000;stroke-width:1px;stroke-linecap:butt;stroke-linejoin:miter;stroke-opacity:1;marker-start:url(#Arrow2Mstart);marker-end:url(#Arrow2Mend)"
       d="m 181,216.86219 0,165.5 198,0"
       id="path4274"
       inkscape:path-effect="#path-effect4276"
       inkscape:original-d="m 181,216.86219 0,165.5 198,0"
       inkscape:connector-curvature="0" />
    <path
       style="fill:none;stroke:#000000;stroke-width:1px;stroke-linecap:butt;stroke-linejoin:miter;stroke-opacity:1;marker-end:url(#Arrow1Mend)"
       d="m 181.29429,381.89661 93.74726,-43.91348"
       id="path3808-8"
       inkscape:path-effect="#path-effect3810-7"
       inkscape:original-d="m 181.29429,381.89661 93.74726,-43.91348"
       inkscape:connector-curvature="0"
       sodipodi:nodetypes="cc" />
    <path
       style="opacity:0.74553576;fill:#000000;fill-opacity:1;stroke:#000000;stroke-width:0.55595642px;stroke-linecap:butt;stroke-linejoin:miter;stroke-opacity:1"
       d="m 376.36896,353.33283 c -4.48839,0.0367 -8.5073,-0.17876 -15.55374,1.23208 -7.63866,1.42851 -17.89252,2.05427 -28.84969,2.46415 -1.08709,0.41257 -2.17419,0.42568 -3.26127,1.38609 4.37375,5.208 -16.44615,5.9659 -15.30288,9.62561 -2.11593,5.9604 18.19551,6.71735 31.60922,7.16145 15.50121,0.19325 30.7812,0.33557 43.65084,-0.077 20.80239,-0.0644 21.29706,-3.91133 35.87395,-9.6256 0.8802,-2.03279 12.69167,-2.91728 16.30635,-4.7743 1.84172,-1.76548 0.42889,-2.2822 -0.25087,-3.0802 -19.49338,-4.46929 -34.56247,-1.46928 -51.67856,-1.92512 l -12.54335,-2.38715"
       id="path3799-7"
       inkscape:connector-curvature="0"
       sodipodi:nodetypes="cccccccccccc" />
    <text
       xml:space="preserve"
       style="font-size:14px;font-style:normal;font-weight:normal;line-height:125%;letter-spacing:0px;word-spacing:0px;fill:#000000;fill-opacity:1;stroke:none;font-family:Sans"
       x="377"
       y="394.36218"
       id="text4713"
       sodipodi:linespacing="125%"><tspan
         sodipodi:role="line"
         id="tspan4715"
         x="377"
         y="394.36218"
         style="font-size:12px">x</tspan></text>
    <text
       xml:space="preserve"
       style="font-size:14px;font-style:normal;font-weight:normal;line-height:125%;letter-spacing:0px;word-spacing:0px;fill:#000000;fill-opacity:1;stroke:none;font-family:Sans"
       x="273.5"
       y="348.36218"
       id="text4717"
       sodipodi:linespacing="125%"><tspan
         sodipodi:role="line"
         id="tspan4719"
         x="273.5"
         y="348.36218"
         style="font-size:12px">y</tspan></text>
    <text
       xml:space="preserve"
       style="font-size:14px;font-style:normal;font-weight:normal;line-height:125%;letter-spacing:0px;word-spacing:0px;fill:#000000;fill-opacity:1;stroke:none;font-family:Sans"
       x="184.5"
       y="218.86218"
       id="text4721"
       sodipodi:linespacing="125%"><tspan
         sodipodi:role="line"
         id="tspan4723"
         x="184.5"
         y="218.86218"
         style="font-size:12px">z</tspan></text>
    <g
       sodipodi:type="inkscape:box3d"
       style="opacity:0.74553576;fill:#000000;fill-opacity:1;stroke:#000000;stroke-width:5;stroke-linecap:butt;stroke-linejoin:miter;stroke-miterlimit:4;stroke-opacity:1;stroke-dasharray:none;stroke-dashoffset:0"
       id="g4727"
       inkscape:perspectiveID="#perspective4725"
       inkscape:corner0="-0.089235644 : 0.39233459 : 0 : 1"
       inkscape:corner7="-0.10285508 : 0.38624757 : 0.032978976 : 1"
       inkscape:transform-center-x="35.797281"
       inkscape:transform-center-y="9.1923881">
      <path
         sodipodi:type="inkscape:box3dside"
         id="path4739"
         style="fill:#e9e9ff;fill-rule:evenodd;stroke:none"
         inkscape:box3dsidetype="11"
         d="m 544.4269,-323.66345 5.15679,1.15461 -4.19295,1.60102 -5.09628,-1.17771 z" />
      <path
         sodipodi:type="inkscape:box3dside"
         id="path4729"
         style="fill:#353564;fill-rule:evenodd;stroke:none"
         inkscape:box3dsidetype="6"
         d="m 544.04184,-329.46974 -4.28208,1.63506 0.5347,5.74915 4.13244,-1.57792 z" />
      <path
         sodipodi:type="inkscape:box3dside"
         id="path4731"
         style="fill:#4d4d9f;fill-rule:evenodd;stroke:none"
         inkscape:box3dsidetype="5"
         d="m 544.04184,-329.46974 5.34051,1.1089 0.20134,5.852 -5.15679,-1.15461 z" />
      <path
         sodipodi:type="inkscape:box3dside"
         id="path4737"
         style="fill:#afafde;fill-rule:evenodd;stroke:none"
         inkscape:box3dsidetype="13"
         d="m 539.75976,-327.83468 5.27551,1.13372 0.35547,5.79314 -5.09628,-1.17771 z" />
      <path
         sodipodi:type="inkscape:box3dside"
         id="path4735"
         style="fill:#d7d7ff;fill-rule:evenodd;stroke:none"
         inkscape:box3dsidetype="14"
         d="m 549.38235,-328.36084 -4.34708,1.65988 0.35547,5.79314 4.19295,-1.60102 z" />
      <path
         sodipodi:type="inkscape:box3dside"
         id="path4733"
         style="fill:#8686bf;fill-rule:evenodd;stroke:none"
         inkscape:box3dsidetype="3"
         d="m 544.04184,-329.46974 5.34051,1.1089 -4.34708,1.65988 -5.27551,-1.13372 z" />
    </g>
    <path
       style="opacity:0.74553576;fill:#666666;fill-opacity:1;stroke:none"
       d="m 404.45814,296.4781 c -1.34709,-0.31101 -2.47089,-0.58711 -2.49734,-0.61356 -0.0382,-0.0382 -0.59066,-5.60664 -0.56036,-5.64775 0.0108,-0.0147 5.18216,1.10288 5.20381,1.12454 0.016,0.016 0.0935,1.05939 0.0983,1.32396 0.001,0.0687 0.056,1.01093 0.12166,2.09375 0.0657,1.08281 0.11124,2.0398 0.10129,2.12663 l -0.0181,0.15789 -2.44924,-0.56546 z"
       id="path4763"
       inkscape:connector-curvature="0" />
    <path
       style="opacity:0.74553576;fill:#999999;fill-opacity:1;stroke:none"
       d="m 406.17742,291.1941 c -0.0947,-0.05 -0.97275,-0.25001 -1.03876,-0.23661 -0.0241,0.005 -0.086,-0.008 -0.13753,-0.0293 -0.0516,-0.021 -0.83906,-0.19568 -1.75,-0.3882 -0.91093,-0.19252 -1.68407,-0.35783 -1.71807,-0.36736 -0.034,-0.01 0.20506,-0.11958 0.53125,-0.24457 0.32619,-0.12498 1.26429,-0.48376 2.08466,-0.7973 l 1.49159,-0.57006 0.35216,0.0656 c 0.33184,0.0618 0.49443,0.0945 0.78966,0.15891 0.53502,0.11663 1.05747,0.22688 1.20219,0.2537 0.24505,0.0454 0.46066,0.0886 0.64156,0.12853 0.0859,0.019 0.36719,0.0774 0.625,0.12998 0.5662,0.11535 0.76121,0.15608 0.84375,0.17624 0.0344,0.008 0.175,0.0374 0.3125,0.0646 0.40102,0.0791 0.44976,0.13004 0.21086,0.22046 -0.11597,0.0439 -0.24245,0.087 -0.28106,0.0959 -0.0386,0.009 -0.16517,0.0578 -0.28125,0.10888 -0.11607,0.0511 -0.35167,0.14214 -0.52355,0.20241 -0.17187,0.0603 -0.33922,0.13401 -0.37187,0.16387 -0.0327,0.0298 -0.10297,0.0544 -0.15625,0.0547 -0.0533,2.1e-4 -0.16906,0.0381 -0.25729,0.0841 -0.0882,0.046 -0.23899,0.10343 -0.33502,0.12754 -0.096,0.0241 -0.29104,0.0965 -0.43334,0.16086 -0.1423,0.0644 -0.32659,0.13671 -0.40953,0.16077 -0.0829,0.024 -0.2517,0.0875 -0.375,0.14109 -0.12331,0.0535 -0.26638,0.1098 -0.31795,0.12501 -0.16523,0.0487 -0.61343,0.0554 -0.69871,0.0103 l 0,0 z"
       id="path4767"
       inkscape:connector-curvature="0" />
    <path
       style="fill:none;stroke:#000000;stroke-width:1px;stroke-linecap:butt;stroke-linejoin:miter;stroke-opacity:1;marker-end:url(#Arrow1Mend)"
       d="M 181.05373,381.59215 399.80099,295.17866"
       id="path3808-7"
       inkscape:path-effect="#path-effect3810-1"
       inkscape:original-d="M 181.05373,381.59215 399.80099,295.17866"
       inkscape:connector-curvature="0"
       sodipodi:nodetypes="cc" />
    <text
       xml:space="preserve"
       style="font-size:14px;font-style:normal;font-weight:normal;line-height:125%;letter-spacing:0px;word-spacing:0px;fill:#000000;fill-opacity:1;stroke:none;font-family:Sans"
       x="230.5"
       y="256.86218"
       id="text4796"
       sodipodi:linespacing="125%"><tspan
         sodipodi:role="line"
         id="tspan4798"
         x="230.5"
         y="256.86218"
         style="font-weight:bold;-inkscape-font-specification:Sans Bold">r</tspan></text>
    <text
       xml:space="preserve"
       style="font-size:14px;font-style:normal;font-weight:normal;line-height:125%;letter-spacing:0px;word-spacing:0px;fill:#000000;fill-opacity:1;stroke:none;font-family:Sans"
       x="312.48047"
       y="322.28259"
       id="text4796-7"
       sodipodi:linespacing="125%"><tspan
         sodipodi:role="line"
         id="tspan4798-1"
         x="312.48047"
         y="322.28259"
         style="font-weight:bold;-inkscape-font-specification:Sans Bold">r'</tspan></text>
    <path
       style="fill:none;stroke:#000000;stroke-width:1px;stroke-linecap:butt;stroke-linejoin:miter;stroke-opacity:1;marker-end:url(#Arrow1Mend)"
       d="M 181.28634,382.12763 294.85682,150.56769"
       id="path3808-7-4"
       inkscape:path-effect="#path-effect3810-1-6"
       inkscape:original-d="M 181.28634,382.12763 294.85682,150.56769"
       inkscape:connector-curvature="0"
       sodipodi:nodetypes="cc" />
    <text
       xml:space="preserve"
       style="font-size:14px;font-style:normal;font-weight:normal;line-height:125%;letter-spacing:0px;word-spacing:0px;fill:#000000;fill-opacity:1;stroke:none;font-family:Sans;-inkscape-font-specification:Sans"
       x="349.48047"
       y="209.28259"
       id="text4796-4"
       sodipodi:linespacing="125%"><tspan
         sodipodi:role="line"
         id="tspan4798-7"
         x="349.48047"
         y="209.28259"
         style="font-weight:normal;-inkscape-font-specification:Sans"><tspan
   style="font-weight:bold;-inkscape-font-specification:Sans Bold"
   id="tspan4869">r</tspan>-<tspan
   style="font-weight:bold;-inkscape-font-specification:Sans Bold"
   id="tspan4871">r'</tspan></tspan></text>
    <path
       sodipodi:type="arc"
       style="fill:#000000;fill-opacity:1;stroke:#000000;stroke-opacity:1"
       id="path4873"
       sodipodi:cx="294.77515"
       sodipodi:cy="145.76291"
       sodipodi:rx="1.3258252"
       sodipodi:ry="1.3258252"
       d="m 296.10097,145.76291 c 0,0.73223 -0.59359,1.32582 -1.32582,1.32582 -0.73224,0 -1.32583,-0.59359 -1.32583,-1.32582 0,-0.73223 0.59359,-1.32583 1.32583,-1.32583 0.73223,0 1.32582,0.5936 1.32582,1.32583 z"
       transform="translate(1.5909903,2.1213204)" />
    <text
       xml:space="preserve"
       style="font-size:14px;font-style:normal;font-weight:normal;line-height:125%;letter-spacing:0px;word-spacing:0px;fill:#000000;fill-opacity:1;stroke:none;font-family:Sans"
       x="286.75"
       y="142.11218"
       id="text4887"
       sodipodi:linespacing="125%"><tspan
         sodipodi:role="line"
         id="tspan4889"
         x="286.75"
         y="142.11218"><tspan
   style="font-weight:bold;-inkscape-font-specification:Sans Bold"
   id="tspan4891">E</tspan>(<tspan
   style="font-weight:bold;-inkscape-font-specification:Sans Bold"
   id="tspan4893">r</tspan>)</tspan></text>
    <text
       xml:space="preserve"
       style="font-size:14px;font-style:normal;font-weight:normal;line-height:125%;letter-spacing:0px;word-spacing:0px;fill:#000000;fill-opacity:1;stroke:none;font-family:Sans"
       x="416.83945"
       y="293.99017"
       id="text4895"
       sodipodi:linespacing="125%"><tspan
         sodipodi:role="line"
         id="tspan4897"
         x="416.83945"
         y="293.99017">ρ<tspan
   style="font-size:65.00091553%;baseline-shift:sub"
   id="tspan4901">E</tspan>(<tspan
   style="font-weight:bold;-inkscape-font-specification:Sans Bold"
   id="tspan4899">r'</tspan>)</tspan></text>
  </g>
</svg>
